<!-- icon666.com - MILLIONS OF FREE VECTOR ICONS --><svg id="hairstyle3" enable-background="new 0 0 300 300" viewBox="0 0 300 300" xmlns="http://www.w3.org/2000/svg"><g><circle cx="67.003" cy="237.817" r="4"></circle><path d="m86.013 53.091 3.067-3.068 3.067 3.068c.781.781 1.805 1.172 2.828 1.172s2.047-.391 2.828-1.172c1.562-1.561 1.562-4.094 0-5.656l-3.068-3.068 3.068-3.068c1.562-1.562 1.562-4.096 0-5.656-1.562-1.562-4.094-1.562-5.656 0l-3.067 3.068-3.067-3.068c-1.562-1.562-4.094-1.562-5.656 0-1.562 1.561-1.562 4.094 0 5.656l3.068 3.068-3.068 3.068c-1.562 1.562-1.562 4.096 0 5.656.781.781 1.805 1.172 2.828 1.172s2.046-.391 2.828-1.172z"></path><path d="m47.003 145.817c-6.617 0-12 5.383-12 12s5.383 12 12 12 12-5.383 12-12-5.383-12-12-12zm0 16c-2.205 0-4-1.795-4-4s1.795-4 4-4 4 1.795 4 4-1.795 4-4 4z"></path><path d="m254.52 158.122c-3.977-5.711-3.477-9.615-2.48-17.393.637-4.955 1.426-11.121 1.148-19.449-.135-4.081-.87-8.146-2.198-12.33.002-.002.006-.004.008-.006 2.652-2.625 3.262-6.672 1.715-11.398-1.242-3.789-3.816-7.787-7.25-11.258s-7.406-6.088-11.182-7.369c-1.04-.353-2.033-.558-3.001-.701-1.403-2.744-3.367-5.453-5.817-7.93-3.434-3.471-7.406-6.088-11.182-7.369-2.968-1.007-5.619-1.056-7.877-.373-2.09-3.335-6.456-6.179-12.242-7.623-3.789-.945-7.604-1.082-10.74-.383-.592.132-1.094.354-1.629.543-.25-.27-.45-.556-.738-.813-1.906-1.695-4.578-3.033-7.525-3.77-5.171-1.297-9.745-.521-12.432 1.763-2.649-2.212-7.075-3.048-12.133-1.943-2.967.645-5.68 1.9-7.639 3.537-1.744 1.459-2.776 3.197-3.148 4.99-9.571 2.334-17.645 6.589-24.051 12.683-.062.013-.119.015-.181.029-3.816.828-7.297 2.395-9.801 4.41-2.662 2.14-4.039 4.746-4.086 7.345-1.612.439-3.235 1.36-4.76 2.741-2.381 2.16-4.471 5.354-5.885 8.994-1.961 5.051-2.258 9.774-1.167 13.326-.651.476-1.267 1.034-1.831 1.678-1.926 2.201-3.156 5.188-3.463 8.406s.338 6.383 1.814 8.908c.799 1.369 1.833 2.474 3 3.315-.144.239-.32.437-.45.692-1.264 2.486-1.777 5.588-1.445 8.736.372 3.519 1.726 6.547 3.64 8.678-.076.139-.177.246-.248.39-1.227 2.473-1.721 5.561-1.391 8.695.326 3.076 1.437 5.789 3.024 7.894-1.151 2.379-1.708 5.321-1.371 8.516.284 2.693 1.144 5.091 2.374 7.032-3.06 1.414-5.711 4.144-7.068 7.823-1.088 2.957-2.283 9.014-2.777 14.088-.615 6.322-.604 13.021 4.148 14.771.65.24 1.295.352 1.93.352 4.002 0 7.662-4.42 10.783-8.928 2.893-4.176 5.896-9.561 6.986-12.523 1.145-3.105 1.232-6.428.25-9.355-.379-1.127-.956-2.118-1.615-3.032 1.598-1.243 2.832-3.092 3.577-5.33 7.725 9.287 10.19 18.362 8.379 30.9-.496.574-.978 1.174-1.416 1.837-2.926 4.43-3.472 9.393-1.811 12.929-.479 1.815-.969 3.642-1.486 5.55l-.643 2.373c-1.305 4.824-5.754 18.1-8.994 25.855-.852 2.037.111 4.381 2.15 5.232.504.211 1.025.311 1.539.311 1.566 0 3.053-.926 3.693-2.461 3.355-8.031 7.975-21.824 9.334-26.85l.641-2.365c.29-1.069.553-2.07.833-3.109.024 0 .047.01.072.01 3.822 0 8.023-2.467 10.871-6.779 2.318-3.51 3.113-7.345 2.536-10.554 1.084-.937 2.077-2.112 2.865-3.634 1.479-2.855 2.324-6.576 2.381-10.48s-.682-7.65-2.078-10.547c-.688-1.427-1.57-2.543-2.53-3.48.795-1.863 1.239-4.297 1.295-7.344.08-4.338-.611-9.562-1.801-13.633-1.318-4.506-3.129-7.314-5.699-8.842-.167-.099-.336-.159-.504-.244.319-.466.659-.894.936-1.43 1.479-2.855 2.324-6.576 2.381-10.48s-.682-7.65-2.078-10.547c-.237-.491-.538-.879-.81-1.315 2.821-1.651 5.604-4.006 8.035-6.853 2.209-2.586 3.839-5.271 4.996-7.897 2.156 1.438 4.806 2.636 7.908 3.41 2.297.574 4.5.848 6.537.848 2.347 0 4.463-.372 6.25-1.064 1.239 1.408 2.781 2.716 4.552 3.784 1.852 1.116 3.704 1.844 5.479 2.271.517 2.752 2.164 5.734 4.859 8.428 3.299 3.299 7.031 5.043 10.244 5.043 1.969 0 3.744-.656 5.1-2.012.002 0 .002-.002.002-.002 3.57-3.568 2.295-10.023-3.029-15.348-1.997-1.995-4.151-3.421-6.253-4.236-.665-3.222-3.27-6.569-7.409-9.065-2.602-1.566-5.436-2.514-7.982-2.668-.934-.048-1.808.029-2.634.185-.369-.399-.69-.812-1.13-1.189-2.441-2.092-5.873-3.766-9.66-4.709-5.78-1.445-10.966-.99-14.377.966-5.278-3.982-14.477-.798-21.701 7.667-7.201 8.43-8.915 17.97-4.229 22.577-.204.325-.44.592-.625.948-1.479 2.854-2.326 6.576-2.383 10.482-.055 3.904.682 7.648 2.078 10.545.752 1.559 1.723 2.771 2.794 3.743-.692.634-1.339 1.407-1.837 2.396-1.344 2.67-1.357 6.014-.039 10.518 1.189 4.072 3.422 8.846 5.826 12.457.999 1.502 1.996 2.669 2.991 3.682-.256.323-.475.715-.709 1.08-1.901-4.45-4.642-8.702-8.309-12.946-2.606-3.014-4.926-6.637-6.943-10.729.603-2.013.849-4.255.607-6.562-.366-3.46-1.672-6.438-3.511-8.569.098-.171.225-.307.316-.486 1.264-2.486 1.777-5.588 1.445-8.736-.437-4.135-2.247-7.569-4.717-9.686 1.646-2.076 2.795-4.791 3.094-7.916.299-3.14-.32-6.216-1.719-8.707 2.475-2.086 4.707-5.264 6.283-9.325 1.475-3.798 1.986-7.399 1.71-10.48.785.085 1.591.137 2.422.137 1.855 0 3.807-.213 5.758-.637 3.855-.838 7.06-2.328 9.457-4.172 1.253 1.817 3.161 3.386 5.814 4.527 3.143 1.354 7.051 2.072 11.176 2.072.682 0 1.371-.02 2.062-.059 6.035-.345 11.147-2.118 14.611-4.702 2.382 2.228 5.84 4.076 10.116 5.144 2.193.547 4.395.824 6.469.824 1.288 0 2.488-.162 3.643-.376-.268 3.803 2.491 8.107 7.539 11.15 1.88 1.134 3.881 1.93 5.81 2.349.041.213.034.413.088.629.619 2.477 2.072 5.088 4.094 7.357 3.266 3.662 7.109 5.635 10.434 5.635 1.775 0 3.402-.562 4.713-1.729 0-.002 0-.002.002-.002 3.766-3.357 2.865-9.875-2.143-15.494-1.986-2.231-4.37-3.947-6.722-4.859-.237-.993-.59-1.996-1.196-2.992-1.324-2.182-3.486-4.246-6.088-5.814-2.877-1.734-5.759-2.585-8.322-2.663.734-3.079-.616-6.368-3.734-9.038-2.441-2.092-5.875-3.766-9.662-4.709-3.791-.947-7.609-1.084-10.74-.383-.886.197-1.682.488-2.438.812-1.199-1.193-2.688-2.261-4.604-3.086-3.662-1.578-8.363-2.285-13.238-2.014-6.263.358-11.519 2.259-14.979 5.006-.952-1.129-2.24-2.035-3.816-2.691 4.419-2.667 9.463-4.651 15.153-5.866 1.746.991 3.983 1.541 6.527 1.541 1.381 0 2.852-.158 4.373-.49 2.969-.643 5.682-1.898 7.639-3.537.311-.26.531-.553.801-.83 1.871 1.955 4.694 3.55 8.21 4.427 1.627.406 3.268.609 4.826.609 1.17 0 2.275-.142 3.314-.372.582.802 1.275 1.58 2.124 2.307 2.441 2.092 5.873 3.764 9.662 4.709 2.191.547 4.393.824 6.467.824 1.51 0 2.951-.146 4.273-.441.317-.071.572-.204.873-.291 1.015 4.012 3.588 8.414 7.551 12.42 4.45 4.496 9.642 7.421 14.194 8.086 1.402 2.727 3.373 5.452 5.806 7.912 4.849 4.901 10.304 7.714 14.943 8.135 1.117 3.507 1.735 6.886 1.846 10.244.258 7.686-.457 13.254-1.086 18.166-.286 2.226-.541 4.321-.669 6.363l-6.313-.92c-2.172-.32-4.217 1.193-4.535 3.383-.318 2.186 1.197 4.217 3.383 4.535l7.455 1.086c.194.027.386.041.578.041.652 2.713 1.856 5.487 3.951 8.494 5.498 7.895 8.203 14.357 8.883 17.311-2.313.471-6.313.988-9.668 1.285-1.996.176-3.555 1.803-3.645 3.805-.012.283-.295 6.721-.027 10.898-.578.324-1.762.668-2.699.762-1.621.148-2.99 1.268-3.461 2.828-.473 1.559.051 3.252 1.318 4.275 1.121.904 2.316 2.189 2.852 3.023-.199.26-.428.551-.68.873-3.324 4.268-10.201 13.094-10.773 23.094-3.783 2.23-22.656-1.771-29.863-3.297-8.963-1.898-11.898-2.477-13.992-1.828-4.268 1.312-6.873 6.711-11.039 35.229-.32 2.186 1.193 4.217 3.379 4.535.195.029.391.043.584.043 1.953 0 3.662-1.432 3.951-3.422 2.887-19.756 4.867-26.398 5.975-28.568 2.018.254 6.092 1.117 9.484 1.836 17.248 3.658 30.896 6.1 36.658 1.633 1.738-1.348 2.746-3.293 2.838-5.475.322-7.584 6.258-15.203 9.109-18.863.703-.902 1.26-1.625 1.598-2.133 1.838-2.758.998-5.652-.537-8.041 2.156-1.482 3.543-3.686 3.311-6.623-.154-1.943-.143-4.758-.098-6.973 3.76-.43 8.598-1.15 10.643-2.172 1.357-.68 2.326-1.926 2.73-3.51 1.429-5.589-4.636-17.009-10.263-25.089zm-68.707-28.402c-.877-.361-2.082-1.078-3.367-2.361-1.285-1.285-2-2.492-2.363-3.367.877.361 2.082 1.078 3.367 2.361 1.285 1.285 2 2.492 2.363 3.367zm-11.396-12.774c-.936-.141-2.279-.545-3.836-1.482-1.555-.938-2.539-1.936-3.102-2.699.938.141 2.279.545 3.836 1.482 1.555.938 2.539 1.938 3.102 2.699zm-22.314-10.17c3.718.927 5.943 2.497 6.925 3.565-.043.229-.036.469-.055.703-1.315.504-4.078.903-7.923-.059-4.334-1.082-6.75-3.08-7.389-4.08 1.031-.58 4.106-1.209 8.442-.129zm-25.379 90.995c.064-4.469 1.461-7.277 2.287-8.127.803.873 2.117 3.721 2.051 8.189-.061 4.22-1.297 6.899-2.131 7.904-.145-.058-.279-.147-.427-.195-.798-1.142-1.838-3.76-1.78-7.771zm-2.12 20.437c-1.584 2.4-3.625 3.227-4.16 3.203-.271-.564-.268-2.689 1.312-5.082 1.258-1.907 2.742-2.864 3.558-3.173.23.124.449.277.686.376.137.853-.051 2.64-1.396 4.676zm-3.593-84.564c.803.873 2.117 3.721 2.051 8.189-.064 4.467-1.459 7.277-2.285 8.125-.803-.871-2.117-3.719-2.053-8.188s1.461-7.277 2.287-8.126zm3.031-20.801c4.268-4.996 8.549-6.678 10.211-6.678.297 0 .51.053.625.15.756.646.277 5.834-4.754 11.723-2.344 2.746-5.131 4.932-7.645 5.996-2.111.891-3.086.621-3.189.531-.758-.646-.277-5.834 4.752-11.722zm-2.643 53.769c-1.018-3.479-.551-4.564-.494-4.678.117-.232.682-.512 1.547-.764.574-.168 1.043-.256 1.359-.256.158 0 .277.021.354.066.107.064 1.088.729 2.104 4.209 1.402 4.789 1.713 10.469 1.34 13.621-2.012-2.454-4.811-7.407-6.21-12.198zm86.942-53.205c-.854-.412-2.016-1.195-3.225-2.551-1.209-1.357-1.854-2.604-2.164-3.498.852.41 2.016 1.195 3.225 2.551 1.207 1.358 1.853 2.602 2.164 3.498zm-14.326-15.633c1.555.938 2.539 1.938 3.102 2.699-.936-.141-2.279-.545-3.836-1.482-1.555-.938-2.539-1.938-3.102-2.699.935.141 2.279.545 3.836 1.482zm-19.526-15.5c4.334 1.08 6.752 3.082 7.389 4.08-1.029.578-4.105 1.213-8.439.129-4.336-1.082-6.752-3.082-7.391-4.08 1.035-.58 4.109-1.207 8.441-.129zm-28.627-4.443c.566-.033 1.113-.049 1.645-.049 6.604 0 10.371 2.351 10.538 3.304-.008.054-.009.107-.016.161-.179 1.088-4.205 4.14-11.712 4.568-3.613.211-7.109-.293-9.619-1.373-1.914-.824-2.576-1.719-2.588-1.934-.056-.993 4.02-4.236 11.752-4.677zm-46.16 100.375c-.57-.264-1.916-1.906-2.217-4.76-.318-3.006.779-4.938 1.09-5.148.508.125 1.984 1.787 2.301 4.791.303 2.855-.672 4.74-1.174 5.117zm-.476-21.529c.158 1.492-.042 2.749-.374 3.693-.345-.01-.685-.063-1.036-.025-.298.031-.568.141-.854.205-.498-.817-.965-1.968-1.128-3.514-.298-2.812.627-4.628 1.004-5.026.06-.005.119-.003.179-.009.016-.002.03-.01.046-.011.583.3 1.867 1.878 2.163 4.687zm-2.957-12.738c-.035.003-.069-.006-.104-.002-.034.004-.064.021-.098.025-.566-.268-1.93-1.787-2.236-4.689-.33-3.127.895-4.998 1.268-5.158.461.072 2.047 1.646 2.377 4.773.307 2.9-.711 4.67-1.207 5.051zm-3.299-19.512c-.023 0-.064.002-.062-.004-.395-.037-.855-.445-1.232-1.092-.627-1.072-.902-2.572-.756-4.113.146-1.539.699-2.959 1.518-3.895.467-.533.967-.844 1.354-.844.021 0 .045.002.066.004.393.037.854.445 1.232 1.092.627 1.072.902 2.572.756 4.111-.288 3.014-1.99 4.741-2.876 4.741zm5.427 69.711c-1.309 3.559-5.596 10.533-8.619 14.131.014-4.707 1.254-12.807 2.564-16.361.871-2.363 2.686-3.684 4.088-3.684.234 0 .459.037.666.113.879.324 1.301 1.24 1.475 1.758.399 1.185.336 2.66-.174 4.043zm2.52-94.619c-1.617 4.162-3.904 6.309-4.977 6.816-.447-1.098-.686-4.225.932-8.389 1.619-4.164 3.906-6.312 4.977-6.818.447 1.096.687 4.223-.932 8.391zm15.65-15.901c-4.373.947-7.42.223-8.434-.391.666-.977 3.145-2.902 7.512-3.852 4.363-.949 7.418-.221 8.432.389-.668.979-3.146 2.905-7.51 3.854zm34.399-24.092c-1.773.387-3.176.334-4.109.166.779-.541 2.033-1.168 3.809-1.555 1.773-.385 3.176-.332 4.109-.166-.78.542-2.034 1.171-3.809 1.555zm20.283.116c-1.764-.439-2.998-1.105-3.76-1.67.936-.143 2.34-.148 4.104.291 1.762.439 2.996 1.105 3.758 1.67-.938.136-2.34.148-4.102-.291zm19.928 7.254c-4.336-1.082-6.754-3.082-7.391-4.08 1.031-.586 4.105-1.211 8.439-.131 4.336 1.082 6.754 3.082 7.391 4.08-1.035.584-4.107 1.213-8.439.131zm17.314 3.302c.723-.709 5.844.217 11.285 5.715 1.36 1.375 2.516 2.856 3.458 4.338-.114.101-.259.152-.368.259-1.491 1.476-2.262 3.435-2.442 5.677-1.948-.953-4.149-2.439-6.333-4.646-5.447-5.505-6.307-10.644-5.6-11.343zm20.264 19.221c-.648-1.982-.416-3.07-.264-3.221.051-.051.326-.164.875-.164.521 0 1.291.104 2.346.461 2.586.877 5.525 2.852 8.064 5.418 2.541 2.568 4.484 5.529 5.334 8.123.51 1.56.47 2.469.373 2.906-.312.042-.626.045-.933.167-.163.064-.274.191-.423.273-.5-.036-1.117-.132-1.971-.422-2.586-.877-5.525-2.852-8.064-5.418-2.542-2.568-4.486-5.529-5.337-8.123z"></path><path d="m173.513 163.341c-2.209 0-4 1.791-4 4 0 .25 0 .666-.709 1.029-.814.412-1.701.289-1.893.15-1.434-1.291-3.146-2.324-4.957-3.42-2.375-1.436-5.068-3.062-8.051-5.746-3.84-3.455-2.104-10.832.627-14.828.93-1.361 1.719-1.59 2.301-1.637 2.539-.238 6.422 2.867 7.869 4.387 1.518 1.604 4.043 1.674 5.646.166 1.609-1.516 1.688-4.047.174-5.654-.719-.762-7.178-7.453-14.305-6.875-2.314.18-5.635 1.211-8.291 5.102-5.07 7.422-6.574 18.807.627 25.285 3.547 3.193 6.717 5.109 9.264 6.648 1.543.932 2.875 1.738 3.746 2.52.438.394.926.726 1.441 1.015v6.334c0 2.209 1.791 4 4 4s4-1.791 4-4v-5.78c.314-.106.636-.169.943-.306 3.486-1.553 5.566-4.689 5.566-8.391.002-2.208-1.789-3.999-3.998-3.999z"></path><path d="m165.831 150.989c-1.562-1.562-4.094-1.562-5.656 0s-1.562 4.094 0 5.656l4 4c.781.781 1.805 1.172 2.828 1.172s2.047-.391 2.828-1.172c1.562-1.562 1.562-4.094 0-5.656z"></path></g></svg>