<!-- icon666.com - MILLIONS OF FREE VECTOR ICONS --><svg version="1.1" id="Capa_1" xmlns="http://www.w3.org/2000/svg" xmlns:xlink="http://www.w3.org/1999/xlink" x="0px" y="0px" viewBox="0 0 512 512" style="enable-background:new 0 0 512 512;" xml:space="preserve"><path style="" d="M393.836,100.348c-3.41-10.5-11.828-18.406-22.523-21.152l-57.008-14.64l-31.504-49.664 c0,0-0.004,0-0.004-0.004C276.882,5.562,266.757,0,255.714,0c-11.034,0.004-21.156,5.571-27.07,14.891l-31.543,49.691 l-56.969,14.612c-10.695,2.746-19.117,10.657-22.527,21.157s-1.247,21.847,5.797,30.347l37.512,45.356l-3.707,58.695 c-0.695,11.019,4.222,21.473,13.152,27.961c8.934,6.492,20.391,7.938,30.66,3.871l54.728-21.66l54.683,21.664 c3.844,1.523,7.859,2.269,11.844,2.269c6.652,0,13.226-2.086,18.812-6.145c8.929-6.488,13.848-16.941,13.153-27.961l-3.695-58.743 l37.504-45.308C395.081,122.195,397.25,110.847,393.836,100.348z" fill="#FE9700"></path><path style="" d="M393.836,100.348c-3.41-10.5-11.828-18.406-22.523-21.152l-57.008-14.64l-31.504-49.664 c0,0-0.004,0-0.004-0.004C276.882,5.562,266.757,0,255.714,0c-9.801,0.004-18.863,4.411-24.913,11.922 c0.762,0.945,1.492,1.922,2.154,2.965c0,0.004,0.004,0.004,0.004,0.004l31.504,49.664l57.007,14.64 c10.695,2.746,19.114,10.653,22.524,21.152c3.412,10.5,1.244,21.847-5.789,30.351l-37.504,45.308l3.696,58.743 c0.612,9.691-3.127,18.938-10.108,25.441l16.14,6.394c3.844,1.523,7.859,2.269,11.844,2.269c6.652,0,13.226-2.086,18.812-6.145 c8.929-6.488,13.848-16.941,13.153-27.961l-3.695-58.743l37.504-45.308C395.081,122.195,397.25,110.847,393.836,100.348z" fill="#F47C00"></path><g><path style="" d="M388.238,351.602c-8.836,0-16-7.163-16-16V190.786c0-8.837,7.164-16,16-16s16,7.163,16,16v144.815 C404.238,344.439,397.074,351.602,388.238,351.602z" fill="#FEC007"></path><path style="" d="M388.238,467.907c-8.836,0-16-7.163-16-16v-29.031c0-8.838,7.164-16,16-16s16,7.162,16,16v29.031 C404.238,460.745,397.074,467.907,388.238,467.907z" fill="#FEC007"></path></g><path style="fill: rgb(254, 233, 0);" d="M123.762,351.602c-8.836,0-16-7.162-16-15.999V190.787c0-8.837,7.164-16,16-16s16,7.163,16,16 v144.815C139.761,344.439,132.598,351.602,123.762,351.602z" fill="#FEE900"></path><g><path style="" d="M123.762,467.907c-8.836,0-16-7.162-16-15.999v-29.031c0-8.838,7.164-16,16-16s16,7.163,16,16 v29.031C139.761,460.745,132.598,467.907,123.762,467.907z" fill="#FEC007"></path><path style="" d="M189.88,367.405c-8.836,0-16-7.163-16-16v-29.031c0-8.837,7.164-16,16-16c8.835,0,16,7.163,16,16 v29.031C205.879,360.242,198.715,367.405,189.88,367.405z" fill="#FEC007"></path></g><g><path style="fill: rgb(254, 233, 0);" d="M322.117,367.405c-8.836,0-16-7.163-16-16v-29.031c0-8.837,7.164-16,16-16c8.836,0,16,7.163,16,16 v29.031C338.117,360.242,330.953,367.405,322.117,367.405z" fill="#FEE900"></path><path style="fill: rgb(254, 233, 0);" d="M256,439.093c-8.836,0-16-7.163-16-16V299.38c0-8.837,7.164-16,16-16s16,7.163,16,16v123.713 C272,431.93,264.836,439.093,256,439.093z" fill="#FEE900"></path><path style="fill: rgb(254, 233, 0);" d="M255.723,512c-8.836,0-16-7.163-16-16v-29.031c0-8.838,7.164-16,16-16s16,7.163,16,16V496 C271.722,504.838,264.559,512,255.723,512z" fill="#FEE900"></path></g></svg>