<svg xmlns="http://www.w3.org/2000/svg" xmlns:xlink="http://www.w3.org/1999/xlink" viewBox="180 180 450 365" version="1.0"><defs><path d="m624.882812 255.734375 196.722657 66.777344-62.4375 183.941406-196.726563-66.777344Zm0 0" id="a"/></defs><defs><clipPath id="b"><path d="M641 263h8v16h-8Zm0 0"/></clipPath><clipPath id="c"><use xlink:href="#a"/></clipPath><clipPath id="d"><use xlink:href="#a"/></clipPath><clipPath id="e"><use xlink:href="#a"/></clipPath><clipPath id="f"><path d="M634 283h8v16h-8Zm0 0"/></clipPath><clipPath id="g"><use xlink:href="#a"/></clipPath><clipPath id="h"><use xlink:href="#a"/></clipPath><clipPath id="i"><use xlink:href="#a"/></clipPath><clipPath id="j"><path d="M644 280h16v8h-16Zm0 0"/></clipPath><clipPath id="k"><use xlink:href="#a"/></clipPath><clipPath id="l"><use xlink:href="#a"/></clipPath><clipPath id="m"><use xlink:href="#a"/></clipPath><clipPath id="n"><path d="M623 273h16v8h-16Zm0 0"/></clipPath><clipPath id="o"><use xlink:href="#a"/></clipPath><clipPath id="p"><use xlink:href="#a"/></clipPath><clipPath id="q"><use xlink:href="#a"/></clipPath><clipPath id="r"><path d="M636 275h11v12h-11Zm0 0"/></clipPath><clipPath id="s"><use xlink:href="#a"/></clipPath><clipPath id="t"><use xlink:href="#a"/></clipPath><clipPath id="u"><use xlink:href="#a"/></clipPath><clipPath id="v"><path d="M634 273h15v15h-15Zm0 0"/></clipPath><clipPath id="w"><use xlink:href="#a"/></clipPath><clipPath id="x"><use xlink:href="#a"/></clipPath><clipPath id="y"><use xlink:href="#a"/></clipPath><clipPath id="z"><path d="M740 463h9v16h-9Zm0 0"/></clipPath><clipPath id="A"><use xlink:href="#a"/></clipPath><clipPath id="B"><use xlink:href="#a"/></clipPath><clipPath id="C"><use xlink:href="#a"/></clipPath><clipPath id="D"><path d="M733 483h9v16h-9Zm0 0"/></clipPath><clipPath id="E"><use xlink:href="#a"/></clipPath><clipPath id="F"><use xlink:href="#a"/></clipPath><clipPath id="G"><use xlink:href="#a"/></clipPath><clipPath id="H"><path d="M743 480h16v8h-16Zm0 0"/></clipPath><clipPath id="I"><use xlink:href="#a"/></clipPath><clipPath id="J"><use xlink:href="#a"/></clipPath><clipPath id="K"><use xlink:href="#a"/></clipPath><clipPath id="L"><path d="M723 473h16v8h-16Zm0 0"/></clipPath><clipPath id="M"><use xlink:href="#a"/></clipPath><clipPath id="N"><use xlink:href="#a"/></clipPath><clipPath id="O"><use xlink:href="#a"/></clipPath><clipPath id="P"><path d="M735 475h12v12h-12Zm0 0"/></clipPath><clipPath id="Q"><use xlink:href="#a"/></clipPath><clipPath id="R"><use xlink:href="#a"/></clipPath><clipPath id="S"><use xlink:href="#a"/></clipPath><clipPath id="T"><path d="M733 473h16v15h-16Zm0 0"/></clipPath><clipPath id="U"><use xlink:href="#a"/></clipPath><clipPath id="V"><use xlink:href="#a"/></clipPath><clipPath id="W"><use xlink:href="#a"/></clipPath><clipPath id="X"><path d="M700 466h6v10h-6Zm0 0"/></clipPath><clipPath id="Y"><use xlink:href="#a"/></clipPath><clipPath id="Z"><use xlink:href="#a"/></clipPath><clipPath id="aa"><use xlink:href="#a"/></clipPath><clipPath id="ab"><path d="M696 476h6v10h-6Zm0 0"/></clipPath><clipPath id="ac"><use xlink:href="#a"/></clipPath><clipPath id="ad"><use xlink:href="#a"/></clipPath><clipPath id="ae"><use xlink:href="#a"/></clipPath><clipPath id="af"><path d="M701 475h10v6h-10Zm0 0"/></clipPath><clipPath id="ag"><use xlink:href="#a"/></clipPath><clipPath id="ah"><use xlink:href="#a"/></clipPath><clipPath id="ai"><use xlink:href="#a"/></clipPath><clipPath id="aj"><path d="M691 472h10v5h-10Zm0 0"/></clipPath><clipPath id="ak"><use xlink:href="#a"/></clipPath><clipPath id="al"><use xlink:href="#a"/></clipPath><clipPath id="am"><use xlink:href="#a"/></clipPath><clipPath id="an"><path d="M698 473h6v6h-6Zm0 0"/></clipPath><clipPath id="ao"><use xlink:href="#a"/></clipPath><clipPath id="ap"><use xlink:href="#a"/></clipPath><clipPath id="aq"><use xlink:href="#a"/></clipPath><clipPath id="ar"><path d="M696 472h9v9h-9Zm0 0"/></clipPath><clipPath id="as"><use xlink:href="#a"/></clipPath><clipPath id="at"><use xlink:href="#a"/></clipPath><clipPath id="au"><use xlink:href="#a"/></clipPath><clipPath id="av"><path d="M641 331h100v100H641Zm0 0"/></clipPath><clipPath id="aw"><use xlink:href="#a"/></clipPath><clipPath id="ax"><use xlink:href="#a"/></clipPath><clipPath id="ay"><use xlink:href="#a"/></clipPath><clipPath id="az"><path d="M639 329h104v103H639Zm0 0"/></clipPath><clipPath id="aA"><use xlink:href="#a"/></clipPath><clipPath id="aB"><use xlink:href="#a"/></clipPath><clipPath id="aC"><use xlink:href="#a"/></clipPath><clipPath id="aD"><path d="M580 344h223v70H580Zm0 0"/></clipPath><clipPath id="aE"><use xlink:href="#a"/></clipPath><clipPath id="aF"><use xlink:href="#a"/></clipPath><clipPath id="aG"><use xlink:href="#a"/></clipPath><clipPath id="aH"><path d="M579 343h225v73H579Zm0 0"/></clipPath><clipPath id="aI"><use xlink:href="#a"/></clipPath><clipPath id="aJ"><use xlink:href="#a"/></clipPath><clipPath id="aK"><use xlink:href="#a"/></clipPath><clipPath id="aL"><path d="M605 350h170v49H605Zm0 0"/></clipPath><clipPath id="aM"><use xlink:href="#a"/></clipPath><clipPath id="aN"><use xlink:href="#a"/></clipPath><clipPath id="aO"><use xlink:href="#a"/></clipPath><clipPath id="aP"><path d="M603 349h174v51H603Zm0 0"/></clipPath><clipPath id="aQ"><use xlink:href="#a"/></clipPath><clipPath id="aR"><use xlink:href="#a"/></clipPath><clipPath id="aS"><use xlink:href="#a"/></clipPath><clipPath id="aT"><path d="M665 343h17v16h-17Zm0 0"/></clipPath><clipPath id="aU"><use xlink:href="#a"/></clipPath><clipPath id="aV"><use xlink:href="#a"/></clipPath><clipPath id="aW"><use xlink:href="#a"/></clipPath><clipPath id="aX"><path d="M692 335h13v13h-13Zm0 0"/></clipPath><clipPath id="aY"><use xlink:href="#a"/></clipPath><clipPath id="aZ"><use xlink:href="#a"/></clipPath><clipPath id="ba"><use xlink:href="#a"/></clipPath><clipPath id="bb"><path d="M691 355h13v14h-13Zm0 0"/></clipPath><clipPath id="bc"><use xlink:href="#a"/></clipPath><clipPath id="bd"><use xlink:href="#a"/></clipPath><clipPath id="be"><use xlink:href="#a"/></clipPath></defs><path d="M18.398438 502.417969V307.582031c0-31.980469 25.921874-57.902343 57.902343-57.902343h563.441407c15.355468 0 30.082031 6.101562 40.941406 16.957031 10.859375 10.859375 16.957031 25.585937 16.957031 40.945312v28.367188c0 24.382812-18.640625 44.71875-42.929687 46.835937-24.292969 2.117188-42.933594 22.453125-42.933594 46.839844v72.792969c0 15.359375-6.097656 30.085937-16.957032 40.945312-10.859374 10.855469-25.585937 16.957031-40.945312 16.957031H76.300781c-31.980469 0-57.902343-25.921874-57.902343-57.902343Zm0 0" fill-opacity=".34"/><path d="M64.230867 352.819355c6.023438 0 13.472656-.746094 20.738281-2.796875 7.203125-2.046875 14.21875-5.523437 19.433594-11.175781 5.21875-5.648438 8.632813-13.347656 8.632813-23.84375 0-6.953125-1.492188-12.355469-4.035157-16.703125-2.546875-4.34375-6.148437-7.574219-10.183593-10.121094l11.546874-30.546875c-12.355468-9.375-27.441406-14.65625-46.132812-14.65625-16.949219 0-28.871094 4.222656-36.511719 11.179688-7.699219 7.015624-11.113281 16.761718-11.113281 27.878906 0 8.753906 2.734375 14.964844 6.953125 19.683594-3.539063 1.921874-6.269531 4.964843-8.007813 8.441406-1.800781 3.539062-2.730468 7.640625-2.730468 11.550781 0 4.46875 2.296875 9.4375 6.519531 14.03125 4.160156 4.597656 10.242187 8.878906 17.878906 11.984375 7.640625 3.105469 16.765625 5.09375 27.011719 5.09375Zm0-8.695312c-12.730469 0-23.46875-3.042969-30.921875-7.265626-7.511719-4.21875-11.859375-9.683593-11.859375-14.402343 0-3.417969.871094-6.957031 2.792969-9.6875 1.925781-2.730469 4.78125-4.59375 8.816406-4.59375 1.179687 0 2.484375.183593 3.914063.496093 2.171874.496094 4.40625 1.179688 6.644531 1.988282 2.234375.867187 4.46875 1.675781 6.765625 2.480468 4.535156 1.554688 9.066406 2.917969 13.476562 2.917969 2.171875 0 3.476563-.371093 4.222656-.929687.742188-.558594.929688-1.367188.929688-2.359375 0-.992188-.992188-1.800781-2.671875-2.484375-1.738281-.683594-4.160156-1.179688-6.890625-1.863282l.0625.0625c-1.863281-.433593-3.972656-.992187-6.394531-1.550781-2.421875-.558593-4.90625-1.242187-7.453125-2.113281-5.089844-1.675781-10.121094-4.097656-13.96875-7.699219-3.851563-3.601562-6.394532-8.441406-6.394532-15.085937 0-8.695313 2.792969-16.269532 9.0625-21.734375 6.273438-5.402344 15.957032-8.628907 29.867188-8.628907 15.957031 0 27.570312 3.289063 35.703125 9.003907l-9.6875 25.640625c-1.738281-.804688-4.65625-1.859375-7.882813-2.917969-3.292968-1.054687-6.894531-2.171875-10.246093-3.164063-3.355469-.933593-6.394531-1.617187-8.382813-1.863281l-2.050781-.1875c-2.171875 0-3.847656.683594-3.847656 3.230469 0 .683594.246093 1.304688.683593 1.738281.929688.992188 2.667969 1.613281 5.027344 2.109375 1.179688.3125 2.484375.621094 3.914063.933594 3.660156.804688 9 1.984375 14.464843 3.910156 5.464844 1.988282 11.054688 4.71875 15.335938 8.691406 4.222656 3.976563 7.082031 9.253907 7.082031 16.207032 0 8.136718-2.796875 14.097656-7.082031 18.378906-4.28125 4.285156-10.058594 6.957031-16.019531 8.570312-5.960938 1.613282-12.042969 2.171876-17.011719 2.171876Zm0 0" fill="#fff"/><path d="m150.529157 352.506855.808593-3.910156c.308594-1.492188.621094-3.105469.992188-4.78125.683594-3.417969 1.492188-7.015625 2.296875-10.246094h7.328125l1.863281 13.164062c3.414063 2.171876 6.953125 3.476563 11.609375 4.347657 4.65625.867187 10.371094 1.238281 18.132813 1.238281 3.722656 0 8.257812-.058594 12.542969-.679688 4.28125-.621093 8.441406-1.800781 11.484374-4.285156 3.042969-2.421875 5.03125-6.023437 5.03125-11.425781 0-2.980469-.808593-6.519531-2.421874-10.554687l.0625.0625c-4.65625-11.921876-9.253907-24.402344-13.414063-36.324219-4.160156-11.921875-7.882813-23.347657-10.679687-33.28125l.0625.0625c-1.550782-5.714844-4.285157-9.378907-7.699219-11.613281-3.476563-2.234376-7.699219-3.042969-12.355469-3.042969-4.78125 0-9.871094 1.117187-15.027344 2.113281-3.539062.746094-7.449218 1.488281-10.742187 1.738281-1.117188-.0625-2.421875-.125-3.847657-.3125-2.917968-.308593-5.898437-.867187-8.816406-1.425781-2.980468-.558594-5.339844-1.179688-6.832031-1.554688-.804687-.183593-1.242187-.308593-1.367187-.371093l-7.199219 30.796875 5.710937.746094c-1.117187 2.667968-2.109375 5.214843-3.042968 7.511718-1.800782 4.71875-3.601563 9.191406-5.402344 14.035156-.929688 2.421876-1.925782 5.089844-2.980469 7.945313-.929687 0-1.863281 0-2.917969-.0625h-6.769531l-4.34375 30.242187c.125.058594.308594.058594.558594.058594h.808593c.308594.0625.742188.0625 1.300782.0625l-4.902344 15.339844Zm43.03125-8.878906c-3.789063 0-7.015625-.125-9.6875-.433594-5.277344-.558594-8.691407-1.367188-10.429688-2.113281-.933593-.371094-1.492187-.621094-1.738281-.742188l-3.167969-15.460937c-6.210937 0-13.226562-.0625-20.429687-.125-1.675782 6.394531-3.226563 12.726562-4.46875 18.441406l-8.136719-.746094c-2.667969-.1875-5.277344-.433594-7.882813-.683594-2.609374-.183593-5.21875-.433593-7.824218-.683593-2.671875-.183594-5.339844-.433594-8.074219-.683594.4375-1.300781.996094-2.730469 1.617187-4.40625l1.921876-5.03125c.683593-1.921875 1.492187-4.097656 2.421874-6.519531-1.054687-.0625-2.046874-.0625-2.855468-.0625-.867188 0-1.613282 0-2.171875-.058594l1.800781-13.226562c.804688 0 1.925781 0 3.289062.0625 1.304688.0625 2.917969.0625 4.84375.121093 2.917969-7.636719 6.085938-15.894531 9.191407-23.839843 3.101562-7.886719 6.144531-15.523438 8.691406-21.734376l-7.761719-.992187 2.359375-12.605469 14.59375 1.675782c4.160157-.0625 8.816407-1.054688 13.410157-1.984376 4.59375-.933593 9.191406-1.863281 13.164062-1.863281 2.730469 0 5.214844.496094 7.203125 1.738281 1.984375 1.242188 3.476563 3.289063 4.40625 6.519532 2.917969 10.367187 6.644531 21.980468 10.867187 34.027344 4.160157 12.042968 8.753907 24.523437 13.414063 36.382812 1.179687 3.042969 1.796875 5.402344 1.796875 7.328125 0 1.429687-.371094 2.546875-1.054688 3.476563-1.425781 1.800781-3.785156 2.980468-6.703124 3.476562-2.980469.558594-6.085938.746094-8.882813.746094Zm-27.632813-31.417969-5.773437-28.75-2.855469 9.4375c-.808594 2.796875-1.738281 5.839844-2.734375 9.191406-1.054687 3.414063-1.984375 6.707031-2.917969 9.933594 2.546875.0625 4.96875.0625 7.390625.125 2.359375.0625 4.65625.0625 6.890625.0625Zm97.103661 40.667969c2.792969 0 6.519532-.558594 10.058594-1.796875 3.539063-1.242188 7.015625-3.105469 9.375-5.589844 2.359375-2.484375 3.601563-5.589844 2.855469-9.5-1.488281-7.886719-2.359375-17.011719-2.855469-26.078125-.496094-9.066406-.558594-18.195312-.558594-26.140625.183594.0625.433594.0625.804688.125.683594.058594 1.554688.121094 2.359375.121094h1.121094c5.214843.0625 9.0625-1.179688 11.980469-3.226563 2.921874-1.988281 4.71875-4.71875 5.898437-7.636718 1.183594-2.917969 1.617187-5.777344 1.617187-8.199219 0-5.214844-1.429687-10.058594-4.160156-13.660157-2.734375-3.601562-6.832031-6.082031-12.109375-6.640624h.0625c-1.800781-.1875-3.414062-.375-4.90625-.5-2.980469-.183594-5.960937-.183594-9.375-.183594-1.675781.0625-3.601562.0625-5.773437.0625-9.128906 0-19.0625.558594-28.996094 1.550781-10 1.054687-19.996094 2.546875-29.246094 4.347656l2.234375 34.707031 16.390625-1.300781-.183594 5.835938c-.0625 1.738281-.0625 3.414062-.125 5.089843-.0625 1.675782-.0625 3.351563-.0625 5.152344v11.425782c0 1.675781.0625 3.230468.125 4.535156v-.125c.308594 9.003906.992188 16.207031 2.792969 21.792968 1.738281 5.589844 4.65625 9.5625 9.5 12.109376 4.84375 2.542968 11.550781 3.722656 21.175781 3.722656Zm0-8.691406c-7.886718 0-13.289062-1.179688-16.953124-3.726563-3.726563-2.542969-5.710938-6.519531-6.769532-12.230469-1.054687-5.652344-1.179687-12.976562-1.179687-22.230468 0-5.027344.125-10.800782.25-16.390626.125-5.589843.25-10.992187.433593-15.460937-2.980468.0625-5.773437.1875-8.503906.371094-1.429687.125-2.859375.25-4.285156.3125l-4.535156.371093c-.183594-3.226562-.371094-6.269531-.496094-9.1875l-.558594-9.066406c6.957032-1.304687 14.902344-2.359375 23.347656-3.105468 8.382813-.746094 17.136719-1.117188 25.644532-1.117188 2.109375 0 3.972656 0 5.585937-.0625h4.597657c2.855468.0625 5.460937.1875 8.878906.621094 5.523437.683594 8.503906 5.527344 8.503906 11.671875 0 1.988281-.742188 4.472656-2.421875 6.460937-1.738281 1.984375-4.40625 3.539063-8.378906 3.539063-.746094 0-1.554688-.0625-2.484375-.1875-1.988282-.25-3.167969-.3125-4.597656-.3125h-2.480469c-.933594 0-2.050781-.058594-3.476563-.121094v7.140625c0 8.132812.183594 17.820312.679688 27.628906.5 9.8125 1.429687 19.808594 2.917968 28.4375v.25c0 1.304688-1.738281 2.917969-4.28125 4.160156-2.546874 1.304688-5.960937 2.234376-9.4375 2.234376Zm0 0" fill="#fff"/><path d="M354.171936 353.065449c16.640626 0 29.183594-2.546875 38.621094-7.265625 9.375-4.65625 15.585938-11.421875 19.433594-19.804688 3.851562-8.382812 5.277344-18.378906 5.277344-29.496093 0-14.589844-1.863282-23.59375-3.164063-28.5625-1.675781-7.386719-3.664062-12.355469-6.335937-15.707032-2.730469-3.355468-6.144532-5.09375-10.742188-6.023437-4.59375-.929688-10.367187-.992188-17.757812-.992188-7.699219 0-12.664063 1.300781-15.707032 3.972657-3.042968 2.730468-4.222656 6.828124-4.222656 12.355468 0 4.222656 1.304688 10.433594 2.980469 17.945313.0625.0625.125.371093.183594 1.054687.0625.683594.1875 1.554688.375 2.609375l.808593 7.203125c.058594 1.179688.183594 2.234375.246094 3.164063.0625.933593.125 1.617187.125 1.988281 0 9.191406-.558594 14.652344-1.613281 17.882812-1.058594 3.230469-2.734375 4.097657-4.78125 4.097657-.683594 0-1.304687-.433594-1.738281-1.242188-.4375-.808593-.808594-2.046875-1.058594-3.785156-.496094-3.480469-.683594-8.820313-.683594-16.457031 0-7.511719.125-14.964844.25-21.730469.125-6.707031.1875-12.730469.1875-17.449219 0-.433594 0-1.242187-.0625-2.484375-.0625-1.242187-.0625-2.542969-.125-3.910156-.0625-1.367187-.0625-2.609375-.125-3.789063l-.125-2.234374-51.660156 2.546874c-.742188 5.710938-1.363281 12.042969-1.800781 18.253907-.433594 6.269531-.742188 12.480469-.929688 17.945312-.1875 5.464844-.25 10.246094-.25 13.722657 0 18.5625 3.230469 32.597656 11.675781 41.972656 8.445313 9.4375 22.042969 14.21875 42.71875 14.21875Zm0-8.691406c-17.386718 0-28.8125-4.035157-35.890624-11.984376-7.078126-7.949218-9.808594-19.871093-9.808594-35.515624 0-4.90625.125-12.171876.433594-19.871094.3125-7.636719.808593-15.585938 1.550781-21.730469l35.703125-1.738281v1.054687c0 4.90625-.0625 11.238281-.183594 18.378907-.125 7.140624-.25 15.027343-.25 23.035156 0 10.679687.621094 18.195312 2.421875 23.097656 1.800781 4.90625 4.84375 7.078125 9.75 7.078125 4.964844 0 8.691406-1.238281 11.238281-5.710937 2.542969-4.46875 3.847656-12.109376 3.847656-24.960938 0-6.769531-1.179687-12.914062-2.359374-18.503906-1.179688-5.585938-2.359376-10.679688-2.359376-15.460938 0-2.546875.621094-4.46875 2.296876-5.773437 1.679687-1.242188 4.410156-1.863281 8.632812-1.863281 8.628906 0 14.40625.125 18.503906 2.171874 4.097656 2.050782 6.457032 6.085938 8.195313 13.972657.558593 2.234375 1.367187 5.402343 1.925781 9.746093.558594 4.347657.992188 9.9375.992188 16.703126 0 9.378906-1.304688 17.820312-4.59375 24.898437-3.292969 7.082031-8.632813 12.855469-16.765626 16.828125-8.132812 3.972656-18.9375 6.148438-33.28125 6.148438Zm0 0" fill="#fff"/><path d="M479.648519 356.358417c3.972657 0 9.996094-.621093 19.496094-2.917968 5.214844-1.242188 9.3125-2.796875 12.046875-5.09375 2.730469-2.296875 4.160157-5.464844 4.160157-10.183594 0-3.042969-.808594-6.269531-2.734376-10.429688v.0625c-.679687-1.429687-1.425781-2.917968-2.109374-4.472656-.746094-1.488281-1.550782-2.980468-2.359376-4.53125 9.128907-6.707031 12.542969-16.269531 12.542969-28.996094 0-15.214843-4.59375-26.453124-13.289062-33.839843-8.753907-7.390625-21.730469-10.992188-38.371094-10.992188-11.859375 0-21.609375.621094-30.300781 1.492188-8.695313.867187-16.332032 2.046875-24.03125 3.101562v43.714844h-5.277344v30.238281l5.710938.433594v29.183594l51.601562-4.59375c1.738281 2.792968 3.226562 4.78125 5.152344 6.023437 1.925781 1.242188 4.285156 1.800781 7.761718 1.800781Zm0-8.695312c-1.613281 0-2.734374-.125-3.351562-.371094-.683594-.1875-1.058594-.3125-1.121094-.371094-.308594-.0625-.742187-.5-1.242187-1.304687-.558594-.808594-1.117188-1.863281-1.796875-3.230469-1.304688-2.730468-2.921875-6.394531-4.410156-10.308594-1.550782-3.910156-3.105469-7.945312-4.347657-11.609374h-3.910156c.496094 7.511718 1.054687 14.46875 1.738281 19.746093-6.457031.558594-12.730468 1.179688-18.753906 1.738281l-18.6875 1.675782-.1875-27.753906c-.867188-.0625-1.738281-.1875-2.542969-.25l-2.734375-.1875.433594-13.097657 4.472656.308594v-45.265625c4.160156-.683594 9.933594-1.613281 17.632813-2.359375 7.636719-.746094 17.015625-1.367187 28.191406-1.367187 13.722656 0 24.464844 3.105468 31.789063 9.128906 7.328124 6.023437 11.175781 15.089844 11.175781 27.011718 0 6.144532-1.054688 11.363282-3.476563 15.582032-2.484375 4.222656-6.394531 7.578125-12.105468 10 1.054687 1.859375 2.171874 3.847656 3.351562 6.019531 1.179688 2.175781 2.296875 4.285156 3.351562 6.335937 2.050782 4.222657 3.539063 8.007813 3.539063 10.429688 0 1.304688-.621094 2.421875-1.800781 3.355469-2.480469 1.921875-6.332032 3.289062-10.738282 4.222656-4.472656.992187-8.632812 1.488281-11.613281 1.738281-1.488281.121094-2.421875.183594-2.855469.183594Zm-21.171874-44.828125h1.300781c6.273437 0 10.121093-1.800781 12.359375-4.535156 2.234375-2.730469 2.917968-6.332031 2.917968-9.996094 0-4.78125-1.492187-8.007813-4.222656-9.933594-2.734375-1.925781-6.769531-2.671875-11.738281-2.671875h-1.675781c.1875 7.265625.558594 16.765625 1.058594 27.136719Zm0 0" fill="#fff"/><path d="M606.490407 352.694355c5.777343 0 11.175781-1.242188 15.152343-4.222656 3.972657-2.917969 6.582032-7.574219 6.644532-14.53125l.804687-52.527344v-5.214844c0-7.886718-.183593-14.34375-1.550781-19.4375-1.367188-5.089844-3.789062-8.816406-8.195312-11.300781-4.410157-2.484375-10.742188-3.664063-19.871094-3.664063-6.210938 0-11.488282 2.359376-15.210938 5.527344-3.726562 3.230469-5.960937 7.140625-5.960937 10.308594l.183593 3.226562-2.234374-4.035156c-2.171876-4.65625-5.027344-7.636718-8.257813-9.5-3.289063-1.863281-6.953125-2.546875-10.929687-2.546875-4.71875 0-9.25.871094-13.96875 1.800781-3.972657.746094-7.886719 1.492188-10.929688 1.492188-.433594 0-1.488281-.1875-3.164062-.496094-1.679688-.3125-4.160157-.871094-7.453126-1.679687-1.675781 12.730469-2.917968 28.066406-3.847656 45.640625-.996094 17.570312-1.554687 37.316406-1.617187 58.863281l50.730469.433594c-.0625-1.675781-.1875-3.292969-.25-4.71875-.183594-2.484375-.308594-5.214844-.308594-6.273438-.1875-3.476562-.371094-9.375-.558594-16.761719 4.285156 6.144532 8.507812 11.671876 12.105469 15.894532 3.601562 4.285156 6.582031 7.328125 8.757812 8.566406 2.234375 1.742188 5.648438 2.980469 9.3125 3.851562 3.664063.871094 7.453125 1.304688 10.617188 1.304688Zm0-8.695312c-2.484375 0-5.898438-.433594-9.1875-1.238282-3.292969-.746094-6.582031-1.925781-9.003907-3.355468-.3125 0-.933593-.621094-1.925781-1.863282-1.054687-1.242187-2.359375-2.917968-3.910156-5.089844-3.167969-4.285156-7.265625-10.308593-11.738281-17.015624-4.53125-6.703126-9.4375-14.09375-14.15625-21.296876 0 10 .1875 19.558594.433594 27.878907.25 8.320312.5 15.460937.5625 20.679687l-32.785157-1.242187c.0625-.1875.0625-.621094.125-1.429688.058594-1.550781.121094-4.097656.121094-7.386719v-5.28125c0-6.457031.1875-14.28125.496094-22.539062.25-8.195312.683593-16.886719 1.242187-25.144531.558594-8.257813 1.367188-16.207031 2.175782-22.914063h.371093c.1875.0625.371094.0625.558594.0625.433594 0 .933594 0 1.367187-.0625h.929688c3.976562 0 8.382812-.867187 12.667969-1.675781 4.222656-.746094 8.507812-1.613281 12.230469-1.613281 2.300781 0 4.472656.308594 6.335937 1.179687 1.863281.867188 3.351563 2.296875 4.34375 4.46875.0625.125.375.621094.933594 1.554688l2.234375 3.660156c1.863281 3.042969 4.472656 7.203125 7.511718 12.046875 3.042969 4.84375 6.519532 10.371094 10.183594 16.019531-.0625-6.394531-.183594-12.851562-.371094-18.875-.25-5.960937-.496093-11.550781-.929687-16.207031v-.183594c0-1.304687 1.300781-3.042968 3.539063-4.347656 2.171874-1.304688 5.152343-2.296875 8.628906-2.296875 9.6875 0 14.964844 2.046875 17.757812 6.269531 2.734375 4.222656 3.167969 10.679688 3.167969 19.4375v5.152344l-.808594 52.46875c-.0625 3.722656-1.550781 6.269531-3.910156 7.882812-2.359375 1.617188-5.652344 2.296876-9.191406 2.296876ZM97.257611 530.599938c15.085937 0 28.1875-2.605469 37.566406-8.691406 9.375-6.085938 14.960937-15.648438 14.960937-29.742188 0-9.933594-3.289062-18.566406-10.800781-24.773438 2.980469-3.976562 4.46875-8.261718 4.46875-12.855468 0-9.1875-2.359375-15.957032-6.394531-20.925782-4.035157-4.964843-9.875-8.007812-16.953125-9.933593-7.078125-1.925781-15.398438-2.546875-24.339844-2.546875-.804688 0-1.800781 0-3.042969.0625-2.542969.0625-5.710937.3125-9.1875.558594-3.539062.25-8.074219.558593-13.476562.996093-2.667969.183594-5.277344.371094-7.757813.496094h-2.980468c-1.179688.0625-2.359376.0625-3.664063.0625-2.546875.0625-5.339844.121094-7.886719.121094-2.980468.0625-6.085937.0625-9.3125.125l-1.179687 30.550781c1.054687 0 3.972656-.0625 6.953125-.25l-.496094 69.296875c1.925781.742187 3.910156 1.488281 5.960938 2.234375 3.539062 1.242188 8.257812 2.667969 13.039062 3.476562l.558594.125c.1875.0625.433594.0625.683594.0625.246093 0 .496093.0625.804687.125 1.988281.246094 4.410156.621094 9.191406.867188 4.78125.3125 11.859375.558594 23.285157.558594Zm0-8.691406c-5.277344 0-9.6875-.0625-13.351563-.125-7.324219-.1875-12.480469-.496094-16.144531-.992188-3.722656-.496094-6.828125-1.117188-10.058594-1.863281-1.613281-.375-3.476562-.746094-5.648438-1.179688l.867188-72.835937c-1.054688.0625-2.171875.125-3.226562.125-1.054688.0625-2.175782.0625-3.355469.125l.4375-13.101563c1.800781 0 3.601562 0 5.402343-.0625 1.550782-.0625 3.289063-.0625 5.152344-.0625 1.800782 0 3.539063 0 5.214844-.0625 5.152344-.246093 10.867188-.621093 16.082031-1.054687 7.265625-.496094 13.847657-.992188 17.136719-.992188 10.992188 0 20.738281 1.054688 27.757812 4.71875 6.953126 3.664063 11.238282 9.808594 11.238282 19.992188 0 5.464844-3.976563 10.679687-11.238282 14.59375 6.207032 1.921875 10.679688 4.964844 13.472657 8.941406 2.792969 3.972656 4.097656 8.816406 4.097656 14.09375 0 10.925781-4.65625 18.316406-12.480469 23.035156-7.824218 4.71875-18.75 6.707032-31.355468 6.707032Zm-9.875-53.152344c3.726562-.683594 7.203124-1.054688 10.496093-1.363282 1.425781-1.988281 2.792969-4.84375 2.792969-8.011718 0-3.476563-1.863281-5.527344-3.851562-6.582032-2.046876-1.054687-4.21875-1.304687-4.964844-1.304687h-3.789063c-.308593 5.464844-.496093 11.300781-.683593 17.261719Zm-.371094 32.164062h.1875c4.28125 0 8.566406-.0625 11.796875-1.304687 3.226562-1.242188 5.339843-3.722657 5.339843-8.628907 0-1.988281-.683593-4.035156-2.421874-5.652343-1.800782-1.613281-4.71875-2.667969-9.191407-2.667969-1.242187 0-2.480469.0625-3.785156.246094l-1.800781.1875c-.0625 3.167968-.125 6.273437-.125 9.253906Zm0 0" fill="#fff"/><path d="M212.364946 533.892906c3.972657 0 9.996094-.621093 19.496094-2.917968 5.214844-1.242188 9.3125-2.796875 12.046875-5.09375 2.730469-2.296875 4.160157-5.464844 4.160157-10.183594 0-3.042969-.808594-6.269531-2.734376-10.429688v.0625c-.679687-1.429687-1.425781-2.917968-2.109374-4.472656-.746094-1.488281-1.550782-2.980468-2.359376-4.53125 9.128907-6.707031 12.542969-16.269531 12.542969-28.996094 0-15.214843-4.59375-26.453124-13.289062-33.839843-8.753907-7.390625-21.730469-10.992188-38.371094-10.992188-11.859375 0-21.609375.621094-30.300781 1.492188-8.695313.867187-16.332032 2.046875-24.03125 3.101562v43.714844h-5.277344v30.238281l5.710938.433594v29.183594l51.601562-4.59375c1.738281 2.792968 3.226562 4.78125 5.152344 6.023437 1.925781 1.242188 4.285156 1.800781 7.761718 1.800781Zm0-8.695312c-1.613281 0-2.734374-.125-3.351562-.371094-.683594-.1875-1.058594-.3125-1.121094-.371094-.308594-.0625-.742187-.5-1.242187-1.304687-.558594-.808594-1.117188-1.863281-1.796875-3.230469-1.304688-2.730468-2.921875-6.394531-4.410156-10.308594-1.550782-3.910156-3.105469-7.945312-4.347657-11.609374h-3.910156c.496094 7.511718 1.054687 14.46875 1.738281 19.746093-6.457031.558594-12.730468 1.179688-18.753906 1.738281l-18.6875 1.675782-.1875-27.753906c-.867188-.0625-1.738281-.1875-2.542969-.25l-2.734375-.1875.433594-13.097657 4.472656.308594v-45.265625c4.160156-.683594 9.933594-1.613281 17.632813-2.359375 7.636719-.746094 17.015625-1.367187 28.191406-1.367187 13.722656 0 24.464844 3.105468 31.789063 9.128906 7.328124 6.023437 11.175781 15.089844 11.175781 27.011718 0 6.144532-1.054688 11.363282-3.476563 15.582032-2.484375 4.222656-6.394531 7.578125-12.105468 10 1.054687 1.859375 2.171874 3.847656 3.351562 6.019531 1.179688 2.175781 2.296875 4.285156 3.351562 6.335937 2.050782 4.222657 3.539063 8.007813 3.539063 10.429688 0 1.304688-.621094 2.421875-1.800781 3.355469-2.480469 1.921875-6.332032 3.289062-10.738282 4.222656-4.472656.992187-8.632812 1.488281-11.613281 1.738281-1.488281.121094-2.421875.183594-2.855469.183594Zm-21.171874-44.828125h1.300781c6.273437 0 10.121093-1.800781 12.359375-4.535156 2.234375-2.730469 2.917968-6.332031 2.917968-9.996094 0-4.78125-1.492187-8.007813-4.222656-9.933594-2.734375-1.925781-6.769531-2.671875-11.738281-2.671875h-1.675781c.1875 7.265625.558594 16.765625 1.058594 27.136719Zm0 0" fill="#fff"/><path d="m291.706834 530.041344.808593-3.910156c.308594-1.492188.621094-3.105469.992188-4.78125.683594-3.417969 1.492188-7.015625 2.296875-10.246094h7.328125l1.863281 13.164062c3.414063 2.171876 6.953125 3.476563 11.609375 4.347657 4.65625.867187 10.371094 1.238281 18.132813 1.238281 3.722656 0 8.257812-.058594 12.542969-.679688 4.28125-.621093 8.441406-1.800781 11.484374-4.285156 3.042969-2.421875 5.03125-6.023437 5.03125-11.425781 0-2.980469-.808593-6.519531-2.421874-10.554687l.0625.0625c-4.65625-11.921876-9.253907-24.402344-13.414063-36.324219-4.160156-11.921875-7.882813-23.347657-10.679687-33.28125l.0625.0625c-1.550782-5.714844-4.285157-9.378907-7.699219-11.613281-3.476563-2.234376-7.699219-3.042969-12.355469-3.042969-4.78125 0-9.871094 1.117187-15.027344 2.113281-3.539062.746094-7.449218 1.488281-10.742187 1.738281-1.117188-.0625-2.421875-.125-3.847657-.3125-2.917968-.308593-5.898437-.867187-8.816406-1.425781-2.980468-.558594-5.339844-1.179688-6.832031-1.554688-.804687-.183593-1.242187-.308593-1.367187-.371093l-7.199219 30.796875 5.710937.746094c-1.117187 2.667968-2.109375 5.214843-3.042968 7.511718-1.800782 4.71875-3.601563 9.191406-5.402344 14.035156-.929688 2.421876-1.925782 5.089844-2.980469 7.945313-.929687 0-1.863281 0-2.917969-.0625h-6.769531l-4.34375 30.242187c.125.058594.308594.058594.558594.058594h.808593c.308594.0625.742188.0625 1.300782.0625l-4.902344 15.339844Zm43.03125-8.878906c-3.789063 0-7.015625-.125-9.6875-.433594-5.277344-.558594-8.691407-1.367188-10.429688-2.113281-.933593-.371094-1.492187-.621094-1.738281-.742188l-3.167969-15.460937c-6.210937 0-13.226562-.0625-20.429687-.125-1.675782 6.394531-3.226563 12.726562-4.46875 18.441406l-8.136719-.746094c-2.667969-.1875-5.277344-.433594-7.882813-.683594-2.609374-.183593-5.21875-.433593-7.824218-.683593-2.671875-.183594-5.339844-.433594-8.074219-.683594.4375-1.300781.996094-2.730469 1.617187-4.40625l1.921876-5.03125c.683593-1.921875 1.492187-4.097656 2.421874-6.519531-1.054687-.0625-2.046874-.0625-2.855468-.0625-.867188 0-1.613282 0-2.171875-.058594l1.800781-13.226562c.804688 0 1.925781 0 3.289062.0625 1.304688.0625 2.917969.0625 4.84375.121093 2.917969-7.636719 6.085938-15.894531 9.191407-23.839843 3.101562-7.886719 6.144531-15.523438 8.691406-21.734376l-7.761719-.992187 2.359375-12.605469 14.59375 1.675782c4.160157-.0625 8.816407-1.054688 13.410157-1.984376 4.59375-.933593 9.191406-1.863281 13.164062-1.863281 2.730469 0 5.214844.496094 7.203125 1.738281 1.984375 1.242188 3.476563 3.289063 4.40625 6.519532 2.917969 10.367187 6.644531 21.980468 10.867187 34.027344 4.160157 12.042968 8.753907 24.523437 13.414063 36.382812 1.179687 3.042969 1.796875 5.402344 1.796875 7.328125 0 1.429687-.371094 2.546875-1.054688 3.476563-1.425781 1.800781-3.785156 2.980468-6.703124 3.476562-2.980469.558594-6.085938.746094-8.882813.746094Zm-27.632813-31.417969-5.773437-28.75-2.855469 9.4375c-.808594 2.796875-1.738281 5.839844-2.734375 9.191406-1.054687 3.414063-1.984375 6.707031-2.917969 9.933594 2.546875.0625 4.96875.0625 7.390625.125 2.359375.0625 4.65625.0625 6.890625.0625Zm0 0" fill="#fff"/><path d="M389.927682 530.412438c6.019532 0 11.859376-1.984375 16.082032-4.71875 4.160156-2.730469 6.765625-6.269532 6.269531-9.4375-.992187-7.140625-1.675781-16.761719-2.171875-27.195313-.5-10.367187-.683594-21.359375-.871094-31.046875-.1875-9.683594-.1875-18.003906-.1875-23.160156v-13.535156l-51.410156 2.484375c-.3125 7.511719-.496094 14.777343-.683594 21.917969-.0625 3.042968-.125 6.210937-.1875 9.5l-.183594 9.75c-.125 6.457031-.25 12.542968-.25 17.507812v5.714844c0 1.800781.0625 3.414062.125 4.71875v-.125c.308594 9.003906.992188 16.207031 2.730469 21.792968 1.738281 5.589844 4.597657 9.5625 9.5 12.109376 4.90625 2.542968 11.613281 3.722656 21.238281 3.722656Zm0-8.691406c-10.621093 0-16.640624-2.046876-20.058593-6.707032-3.476563-4.65625-4.40625-11.921875-4.71875-22.539062-.0625-1.300782-.125-2.855469-.125-4.53125v-5.464844c0-2.917969 0-6.023438.0625-9.375.0625-6.707031.1875-13.597656.375-20.117188.0625-3.230468.183593-6.210937.246093-9.003906.125-5.527344.25-9.871094.3125-11.859375l34.335938-1.675781v4.40625c0 5.15625 0 13.414062.1875 22.851562.183594 9.5.433594 20.179688.929688 30.300782.433593 10.183594 1.179687 19.808594 2.171874 27.007812.1875 1.242188-1.488281 2.917969-4.035156 4.285156-2.542968 1.367188-6.144531 2.421876-9.683594 2.421876Zm0 0" fill="#fff"/><path d="M509.384577 437.896813c-9.6875-9.625-24.089844-15.398438-43.214844-15.398438-9.5 0-19.433593.433594-28.191406 1.117188l-29.925781.808593-1.117188 30.546876c.742188 0 3.039063 0 5.585938-.183594v45.386718c0 8.136719.992187 13.847657 3.230468 17.820313 2.171876 4.039063 5.464844 6.460937 9.996094 7.886719 4.53125 1.492187 10.367188 1.988281 17.570313 2.234375h1.429687c.808594 0 1.800782 0 2.980469.0625 1.179687.0625 2.546875.0625 3.972656.125 1.429688.0625 2.796875.0625 4.160157.125 3.726562.1875 7.328124.246093 8.382812.246093 15.957031 0 28.003906-2.421874 36.820312-6.890624 8.816407-4.410157 14.53125-10.742188 18.007813-18.566407 3.476563-7.824219 4.78125-17.074219 4.78125-27.257812 0-15.148438-4.84375-28.4375-14.46875-38.0625Zm1.675781 60.789062c-2.980468 6.519531-7.882812 11.859375-15.398437 15.523438-7.511719 3.722656-17.757813 5.773437-31.417969 5.773437-.808594 0-1.925781 0-3.476562-.0625-1.550782-.0625-3.167969-.0625-4.90625-.125l-5.339844-.183594c-3.601563-.125-6.332032-.1875-7.511719-.1875h-.0625c-7.636719-.308593-13.039063-.929687-16.578125-3.601562-3.539062-2.667969-5.152344-7.265625-5.152344-15.648438v-54.390624l-5.21875.1875.4375-13.039063c3.414063-.0625 6.703125-.1875 9.871094-.3125 3.105469-.0625 6.332031-.1875 9.6875-.25l3.972656-.183594c4.46875-.3125 8.507813-.558593 12.730469-.746093 4.21875-.1875 8.566406-.25 13.472656-.25 16.207031 0 28.5 4.90625 36.695313 12.855468 8.195312 8.007813 12.292968 19.246094 12.292968 31.914063 0 8.507812-1.117187 16.269531-4.097656 22.726562Zm-48.679687-45.515625c-2.484375 0-4.65625.125-6.457031.3125.25 7.203125.621093 15.585938.992187 24.03125.375 8.503906.808594 17.074219 1.304687 24.710938 1.554688.1875 3.355469.1875 4.78125.1875 6.023438 0 9.5-3.417969 11.488282-8.257813 1.925781-4.84375 2.359375-11.117187 2.359375-17.015625 0-7.386718-1.054688-13.347656-3.351563-17.507812-2.300781-4.160156-5.960937-6.460938-11.117187-6.460938Zm0 0" fill="#fff"/><path d="M563.332105 530.353844c6.023438 0 13.472656-.746094 20.738281-2.796875 7.203125-2.046875 14.21875-5.523437 19.433594-11.175781 5.21875-5.648438 8.632813-13.347656 8.632813-23.84375 0-6.953125-1.492188-12.355469-4.035157-16.703125-2.546875-4.34375-6.148437-7.574219-10.183593-10.121094l11.546874-30.546875c-12.355468-9.375-27.441406-14.65625-46.132812-14.65625-16.949219 0-28.871094 4.222656-36.511719 11.179688-7.699219 7.015624-11.113281 16.761718-11.113281 27.878906 0 8.753906 2.734375 14.964844 6.953125 19.683594-3.539063 1.921874-6.269531 4.964843-8.007813 8.441406-1.800781 3.539062-2.730468 7.640625-2.730468 11.550781 0 4.46875 2.296875 9.4375 6.519531 14.03125 4.160156 4.597656 10.242187 8.878906 17.878906 11.984375 7.640625 3.105469 16.765625 5.09375 27.011719 5.09375Zm0-8.695312c-12.730469 0-23.46875-3.042969-30.921875-7.265626-7.511719-4.21875-11.859375-9.683593-11.859375-14.402343 0-3.417969.871094-6.957031 2.792969-9.6875 1.925781-2.730469 4.78125-4.59375 8.816406-4.59375 1.179687 0 2.484375.183593 3.914063.496093 2.171874.496094 4.40625 1.179688 6.644531 1.988282 2.234375.867187 4.46875 1.675781 6.765625 2.480468 4.535156 1.554688 9.066406 2.917969 13.476562 2.917969 2.171875 0 3.476563-.371093 4.222656-.929687.742188-.558594.929688-1.367188.929688-2.359375 0-.992188-.992188-1.800781-2.671875-2.484375-1.738281-.683594-4.160156-1.179688-6.890625-1.863282l.0625.0625c-1.863281-.433593-3.972656-.992187-6.394531-1.550781-2.421875-.558593-4.90625-1.242187-7.453125-2.113281-5.089844-1.675781-10.121094-4.097656-13.96875-7.699219-3.851563-3.601562-6.394532-8.441406-6.394532-15.085937 0-8.695313 2.792969-16.269532 9.0625-21.734375 6.273438-5.402344 15.957032-8.628907 29.867188-8.628907 15.957031 0 27.570312 3.289063 35.703125 9.003907l-9.6875 25.640625c-1.738281-.804688-4.65625-1.859375-7.882813-2.917969-3.292968-1.054687-6.894531-2.171875-10.246093-3.164063-3.355469-.933593-6.394531-1.617187-8.382813-1.863281l-2.050781-.1875c-2.171875 0-3.847656.683594-3.847656 3.230469 0 .683594.246093 1.304688.683593 1.738281.929688.992188 2.667969 1.613281 5.027344 2.109375 1.179688.3125 2.484375.621094 3.914063.933594 3.660156.804688 9 1.984375 14.464843 3.910156 5.464844 1.988282 11.054688 4.71875 15.335938 8.691406 4.222656 3.976563 7.082031 9.253907 7.082031 16.207032 0 8.136718-2.796875 14.097656-7.082031 18.378906-4.28125 4.285156-10.058594 6.957031-16.019531 8.570312-5.960938 1.613282-12.042969 2.171876-17.011719 2.171876Zm0 0" fill="#fff"/><g clip-path="url(#b)"><g clip-path="url(#c)"><g clip-path="url(#d)"><g clip-path="url(#e)"><path stroke-linecap="round" transform="matrix(.0634647 .0215433 .0214716 -.0632535 510.625346 469.490684)" fill="none" stroke-linejoin="round" d="m943.313798 3554.831997-.004557-180.821478" stroke="#180d0c" stroke-width="50" stroke-miterlimit="10"/></g></g></g></g><g clip-path="url(#f)"><g clip-path="url(#g)"><g clip-path="url(#h)"><g clip-path="url(#i)"><path stroke-linecap="round" transform="matrix(.0634647 .0215433 .0214716 -.0632535 510.625346 469.490684)" fill="none" stroke-linejoin="round" d="m943.300519 3234.316744.014179-180.876852" stroke="#180d0c" stroke-width="50" stroke-miterlimit="10"/></g></g></g></g><g clip-path="url(#j)"><g clip-path="url(#k)"><g clip-path="url(#l)"><g clip-path="url(#m)"><path stroke-linecap="round" transform="matrix(.0634647 .0215433 .0214716 -.0632535 510.625346 469.490684)" fill="none" stroke-linejoin="round" d="m1194.060868 3304.159766-180.957157.000506" stroke="#180d0c" stroke-width="50" stroke-miterlimit="10"/></g></g></g></g><g clip-path="url(#n)"><g clip-path="url(#o)"><g clip-path="url(#p)"><g clip-path="url(#q)"><path stroke-linecap="round" transform="matrix(.0634647 .0215433 .0214716 -.0632535 510.625346 469.490684)" fill="none" stroke-linejoin="round" d="m873.506049 3304.166991-180.957156.000506" stroke="#180d0c" stroke-width="50" stroke-miterlimit="10"/></g></g></g></g><g clip-path="url(#r)"><g clip-path="url(#s)"><g clip-path="url(#t)"><g clip-path="url(#u)"><path fill="#ecba2c" d="M646.523438 282.539062c-.953126 2.800782-3.996094 4.296876-6.804688 3.34375-2.808594-.953124-4.316406-3.992187-3.363281-6.796874.949219-2.800782 3.996093-4.292969 6.804687-3.34375 2.808594.953124 4.316406 3.992187 3.363282 6.796874"/></g></g></g></g><g clip-path="url(#v)"><g clip-path="url(#w)"><g clip-path="url(#x)"><g clip-path="url(#y)"><path stroke-linecap="round" transform="matrix(.0634647 .0215433 .0214716 -.0632535 510.625346 469.490684)" fill="none" stroke-linejoin="round" d="M1023.443585 3304.161825c-.0338-44.290161-35.851861-80.141614-80.105062-80.145295-44.253201-.003681-80.132222 35.822168-80.117157 80.167705-.02139 44.271364 35.851861 80.141614 80.105062 80.145295 44.253201.003681 80.132223-35.822168 80.117157-80.167705Zm0 0" stroke="#180d0c" stroke-width="50" stroke-miterlimit="10"/></g></g></g></g><g clip-path="url(#z)"><g clip-path="url(#A)"><g clip-path="url(#B)"><g clip-path="url(#C)"><path stroke-linecap="round" transform="matrix(.0634647 .0215433 .0214716 -.0632535 510.625346 469.490684)" fill="none" stroke-linejoin="round" d="m3308.685624 1198.503608-.004556-180.821478" stroke="#180d0c" stroke-width="50" stroke-miterlimit="10"/></g></g></g></g><g clip-path="url(#D)"><g clip-path="url(#E)"><g clip-path="url(#F)"><g clip-path="url(#G)"><path stroke-linecap="round" transform="matrix(.0634647 .0215433 .0214716 -.0632535 510.625346 469.490684)" fill="none" stroke-linejoin="round" d="m3308.672346 877.988356-.004556-180.821478" stroke="#180d0c" stroke-width="50" stroke-miterlimit="10"/></g></g></g></g><g clip-path="url(#H)"><g clip-path="url(#I)"><g clip-path="url(#J)"><g clip-path="url(#K)"><path stroke-linecap="round" transform="matrix(.0634647 .0215433 .0214716 -.0632535 510.625346 469.490684)" fill="none" stroke-linejoin="round" d="m3559.432694 947.831378-180.957156.000506" stroke="#180d0c" stroke-width="50" stroke-miterlimit="10"/></g></g></g></g><g clip-path="url(#L)"><g clip-path="url(#M)"><g clip-path="url(#N)"><g clip-path="url(#O)"><path stroke-linecap="round" transform="matrix(.0634647 .0215433 .0214716 -.0632535 510.625346 469.490684)" fill="none" stroke-linejoin="round" d="m3238.877876 947.838603-180.957156.000505" stroke="#180d0c" stroke-width="50" stroke-miterlimit="10"/></g></g></g></g><g clip-path="url(#P)"><g clip-path="url(#Q)"><g clip-path="url(#R)"><g clip-path="url(#S)"><path fill="#ecba2c" d="M746.046875 482.542969c-.949219 2.800781-3.996094 4.296875-6.808594 3.34375-2.804687-.949219-4.308593-3.996094-3.359375-6.792969.953125-2.804688 4-4.300781 6.804688-3.347656 2.808594.953125 4.316406 3.992187 3.363281 6.796875"/></g></g></g></g><g clip-path="url(#T)"><g clip-path="url(#U)"><g clip-path="url(#V)"><g clip-path="url(#W)"><path stroke-linecap="round" transform="matrix(.0634647 .0215433 .0214716 -.0632535 510.625346 469.490684)" fill="none" stroke-linejoin="round" d="M3388.815411 947.833437c.021391-44.271365-35.85186-80.141615-80.160252-80.164093-44.179276-.040258-80.040576 35.915138-80.043232 80.131128.015066 44.345536 35.888317 80.215786 80.086327 80.20067 44.253202.003681 80.132223-35.822168 80.117157-80.167705Zm0 0" stroke="#180d0c" stroke-width="50" stroke-miterlimit="10"/></g></g></g></g><g clip-path="url(#X)"><g clip-path="url(#Y)"><g clip-path="url(#Z)"><g clip-path="url(#aa)"><path stroke-linecap="round" transform="matrix(.0634647 .0215433 .0214716 -.0632535 510.625346 469.490684)" fill="none" stroke-linejoin="round" d="m2721.205198 947.220908-.003291-90.225818" stroke="#180d0c" stroke-width="40" stroke-miterlimit="10"/></g></g></g></g><g clip-path="url(#ab)"><g clip-path="url(#ac)"><g clip-path="url(#ad)"><g clip-path="url(#ae)"><path stroke-linecap="round" transform="matrix(.0634647 .0215433 .0214716 -.0632535 510.625346 469.490684)" fill="none" stroke-linejoin="round" d="m2721.196533 787.333124.033165-90.151646" stroke="#180d0c" stroke-width="40" stroke-miterlimit="10"/></g></g></g></g><g clip-path="url(#af)"><g clip-path="url(#ag)"><g clip-path="url(#ah)"><g clip-path="url(#ai)"><path stroke-linecap="round" transform="matrix(.0634647 .0215433 .0214716 -.0632535 510.625346 469.490684)" fill="none" stroke-linejoin="round" d="m2846.28202 822.216024-90.275538-.054105" stroke="#180d0c" stroke-width="40" stroke-miterlimit="10"/></g></g></g></g><g clip-path="url(#aj)"><g clip-path="url(#ak)"><g clip-path="url(#al)"><g clip-path="url(#am)"><path stroke-linecap="round" transform="matrix(.0634647 .0215433 .0214716 -.0632535 510.625346 469.490684)" fill="none" stroke-linejoin="round" d="m2686.391958 822.166295-90.239082.020067" stroke="#180d0c" stroke-width="40" stroke-miterlimit="10"/></g></g></g></g><g clip-path="url(#an)"><g clip-path="url(#ao)"><g clip-path="url(#ap)"><g clip-path="url(#aq)"><path fill="#ecba2c" d="M703.515625 476.96875c-.472656 1.398438-1.992187 2.144531-3.394531 1.667969-1.398438-.472657-2.152344-1.992188-1.675782-3.390625.472657-1.398438 1.996094-2.140625 3.394532-1.667969 1.398437.476563 2.152344 1.992187 1.675781 3.390625"/></g></g></g></g><g clip-path="url(#ar)"><g clip-path="url(#as)"><g clip-path="url(#at)"><g clip-path="url(#au)"><path stroke-linecap="round" transform="matrix(.0634647 .0215433 .0214716 -.0632535 510.625346 469.490684)" fill="none" stroke-linejoin="round" d="M2761.167052 822.190383c.028923-22.098596-17.861879-39.987237-39.960884-39.979679-22.025081-.029019-39.964591 17.883905-39.938324 40.001299-.028923 22.098596 17.935804 39.950659 39.960884 39.979679 22.043815-.026355 39.964591-17.883905 39.938324-40.001299Zm0 0" stroke="#180d0c" stroke-width="40" stroke-miterlimit="10"/></g></g></g></g><g clip-path="url(#av)"><g clip-path="url(#aw)"><g clip-path="url(#ax)"><g clip-path="url(#ay)"><path fill="#73cc83" d="M740.011719 387.597656c-3.691407 27.015625-28.652344 45.890625-55.746094 42.15625-27.097656-3.734375-46.074219-28.664062-42.382813-55.679687 3.6875-27.015625 28.644532-45.894531 55.746094-42.160157 27.089844 3.734376 46.070313 28.664063 42.382813 55.683594"/></g></g></g></g><g clip-path="url(#az)"><g clip-path="url(#aA)"><g clip-path="url(#aB)"><g clip-path="url(#aC)"><path stroke-linecap="round" transform="matrix(.0634647 .0215433 .0214716 -.0632535 510.625346 469.490684)" fill="none" stroke-linejoin="round" d="M2848.18382 2264.729746c77.413213-400.734783-184.728662-788.418844-585.440196-865.857269-400.766724-77.457221-788.446138 184.627921-865.859351 585.362704-77.468403 400.715987 184.599547 788.436625 585.421461 865.912644 400.656343 77.419627 788.390949-184.646718 865.878086-585.418079Zm0 0" stroke="#180d0c" stroke-width="50" stroke-miterlimit="10"/></g></g></g></g><g clip-path="url(#aD)"><g clip-path="url(#aE)"><g clip-path="url(#aF)"><g clip-path="url(#aG)"><path fill="#6fcfc8" d="M802.425781 352.140625c-2.179687-8.757813-32.292969-9.300781-73.21875-2.570313.996094 1.21875 1.945313 2.480469 2.828125 3.789063 30.289063-5.3125 51.527344-6.339844 52.660156-1.785156 1.652344 6.609375-39.613281 22.460937-92.164062 35.402343-52.546875 12.9375-96.488281 18.074219-98.132812 11.46875-1.136719-4.554687 18.070312-13.488281 47.300781-22.835937.050781-.507813.113281-1.023437.183593-1.535156.132813-.992188.300782-1.96875.492188-2.9375-38.195312 12.851562-63.597656 26.960937-61.453125 35.554687 2.894531 11.597656 54.824219 8.792969 115.992187-6.269531 61.164063-15.066406 108.40625-36.679687 105.511719-48.28125"/></g></g></g></g><g clip-path="url(#aH)"><g clip-path="url(#aI)"><g clip-path="url(#aJ)"><g clip-path="url(#aK)"><path stroke-linecap="round" transform="matrix(.0634647 .0215433 .0214716 -.0632535 510.625346 469.490684)" fill="none" stroke-linejoin="round" d="M3559.96397 3067.70602c-72.799186 113.661332-500.866837-23.548389-1046.818031-315.896189 19.918761-12.483652 39.381315-25.801991 58.130446-40.104377 402.468115 221.062288 697.611661 337.825645 735.461405 278.709885 55.04446-85.742846-451.963104-509.025953-1132.373265-945.359705-680.373704-436.25958-1276.575663-720.525854-1331.491008-634.800788-37.904934 59.096963 190.620799 278.164253 558.779485 551.334609-1.718016 7.443075-3.30793 15.053291-4.768729 22.645726-2.882102 14.704279-5.192551 29.356233-7.134388 44.01022-478.015977-365.980809-769.250544-688.231789-697.734924-799.736557 96.50034-150.423506 816.770135 139.168748 1608.757666 647.037362 791.913606 507.905192 1355.729152 1041.625558 1259.191343 1192.159814Zm0 0" stroke="#180d0c" stroke-width="40" stroke-miterlimit="10"/></g></g></g></g><g clip-path="url(#aL)"><g clip-path="url(#aM)"><g clip-path="url(#aN)"><g clip-path="url(#aO)"><path fill="#a4bdc4" d="M774.566406 352.699219c-2.269531-3.207031-18.667968-2.296875-41.839844 1.714843.355469.566407.707032 1.132813 1.042969 1.710938 15.351563-2.820312 25.5625-3.792969 26.679688-2.21875 2.101562 2.957031-28.703125 13.800781-68.792969 24.214844-40.09375 10.414062-74.300781 16.460937-76.402344 13.496094-1.246094-1.753907 9.132813-6.308594 26.1875-11.890626.011719-.691406.042969-1.382812.085938-2.074218-23.796875 8.117187-38.410156 15.488281-35.957032 18.941406 3.683594 5.199219 42.402344-1.429688 89.070313-13.554688 46.664063-12.121093 83.609375-25.140624 79.925781-30.339843"/></g></g></g></g><g clip-path="url(#aP)"><g clip-path="url(#aQ)"><g clip-path="url(#aR)"><g clip-path="url(#aS)"><path stroke-linecap="round" transform="matrix(.0634647 .0215433 .0214716 -.0632535 510.625346 469.490684)" fill="none" stroke-linejoin="round" d="M3169.024383 2925.726553c-47.446755 34.541529-274.771311-57.270985-582.920948-225.645186 7.738847-6.318798 15.422503-12.656393 22.941601-19.235301 203.372302 113.853129 342.975357 176.777039 366.309868 159.836998 43.874552-31.805822-339.350568-333.759923-855.824303-674.303501-516.528925-340.562374-970.831011-590.888596-1014.743032-558.972024-26.017587 18.866974 98.779066 133.377773 312.969089 294.576358-3.150446 9.857716-6.024939 19.809417-8.733861 29.81751-297.290092-229.580562-468.405625-404.392582-417.184639-441.539254 76.980342-55.978085 592.236003 224.309614 1193.444797 620.761625 601.172339 396.377839 1060.72177 758.72469 983.741428 814.702775Zm0 0" stroke="#180d0c" stroke-width="40" stroke-miterlimit="10"/></g></g></g></g><g clip-path="url(#aT)"><g clip-path="url(#aU)"><g clip-path="url(#aV)"><g clip-path="url(#aW)"><path stroke-linecap="round" transform="matrix(.0634647 .0215433 .0214716 -.0632535 510.625346 469.490684)" fill="none" stroke-linejoin="round" d="M1823.528626 2478.771163c9.523293-49.433892-22.837476-97.323505-72.309955-106.824227-49.43501-9.611472-97.312143 22.745546-106.854171 72.234813-9.597219 49.470469 22.782285 97.304707 72.236029 106.860805 49.453744 9.556097 97.312144-22.745547 106.928097-72.271391Zm0 0" stroke="#180d0c" stroke-width="50" stroke-miterlimit="10"/></g></g></g></g><g clip-path="url(#aX)"><g clip-path="url(#aY)"><g clip-path="url(#aZ)"><g clip-path="url(#ba)"><path stroke-linecap="round" transform="matrix(.0634647 .0215433 .0214716 -.0632535 510.625346 469.490684)" fill="none" stroke-linejoin="round" d="M2102.444756 2731.55116c7.055378-36.317699-16.712916-71.399968-52.947265-78.368146-36.270805-7.042351-71.383201 16.693513-78.419845 52.955837-6.981453 36.281122 16.731651 71.344593 53.002456 78.386944 36.289539 6.986975 71.383201-16.693513 78.364654-52.974635Zm0 0" stroke="#180d0c" stroke-width="50" stroke-miterlimit="10"/></g></g></g></g><g clip-path="url(#bb)"><g clip-path="url(#bc)"><g clip-path="url(#bd)"><g clip-path="url(#be)"><path stroke-linecap="round" transform="matrix(.0634647 .0215433 .0214716 -.0632535 510.625346 469.490684)" fill="none" stroke-linejoin="round" d="M2187.706378 2435.694685c6.981453-36.281122-16.73165-71.344593-52.965999-78.312772-36.270805-7.04235-71.438392 16.674716-78.419845 52.955838-7.036644 36.262324 16.731651 71.344593 53.002456 78.386943 36.289539 6.986976 71.346745-16.767685 78.383388-53.030009Zm0 0" stroke="#180d0c" stroke-width="50" stroke-miterlimit="10"/></g></g></g></g></svg>